<svg width="52" height="48" viewBox="0 0 52 48" fill="none" xmlns="http://www.w3.org/2000/svg">
<g clip-path="url(#clip0_5_98)">
<path d="M1.23033 2.03148C1.98442 1.18642 3.2038 1.18642 3.95789 2.03148L9.0119 7.75609V4.30315C9.0119 3.09462 9.87028 2.12235 10.9372 2.12235C12.0042 2.12235 12.8626 3.09462 12.8626 4.30315V13.0264C12.8626 14.2349 12.0042 15.2072 10.9372 15.2072H3.23589C2.16893 15.2072 1.31055 14.2349 1.31055 13.0264C1.31055 11.8178 2.16893 10.8456 3.23589 10.8456H6.29236L1.23033 5.12095C0.48426 4.2668 0.48426 2.88563 1.23033 2.03148ZM10.7367 22.8309C12.7503 18.2603 17.8925 10.8456 25.6982 10.8456C33.5038 10.8456 38.646 18.2603 40.6596 22.8309C40.9645 23.5215 40.9645 24.3302 40.6596 25.0299C38.646 29.6005 33.5038 37.0152 25.6982 37.0152C17.8925 37.0152 12.7503 29.6005 10.7367 25.0299C10.4318 24.3393 10.4318 23.5306 10.7367 22.8309ZM25.6982 29.7458C27.0598 29.7458 28.3657 29.1331 29.3286 28.0425C30.2915 26.9519 30.8324 25.4727 30.8324 23.9304C30.8324 22.388 30.2915 20.9088 29.3286 19.8182C28.3657 18.7276 27.0598 18.1149 25.6982 18.1149C24.3365 18.1149 23.0306 18.7276 22.0677 19.8182C21.1048 20.9088 20.5639 22.388 20.5639 23.9304C20.5639 25.4727 21.1048 26.9519 22.0677 28.0425C23.0306 29.1331 24.3365 29.7458 25.6982 29.7458ZM47.4384 2.03148C48.1925 1.17733 49.4119 1.17733 50.158 2.03148C50.904 2.88563 50.9121 4.2668 50.158 5.11186L45.104 10.8365H48.1604C49.2274 10.8365 50.0858 11.8087 50.0858 13.0173C50.0858 14.2258 49.2274 15.1981 48.1604 15.1981H40.4591C39.3921 15.1981 38.5337 14.2258 38.5337 13.0173V4.30315C38.5337 3.09462 39.3921 2.12235 40.4591 2.12235C41.526 2.12235 42.3844 3.09462 42.3844 4.30315V7.76517L47.4384 2.04057V2.03148ZM1.23033 45.8293C0.476238 44.9751 0.476238 43.5939 1.23033 42.7489L6.28434 37.0243H3.23589C2.16893 37.0243 1.31055 36.052 1.31055 34.8435C1.31055 33.6349 2.16893 32.6627 3.23589 32.6627H10.9372C12.0042 32.6627 12.8626 33.6349 12.8626 34.8435V43.5667C12.8626 44.7752 12.0042 45.7475 10.9372 45.7475C9.87028 45.7475 9.0119 44.7752 9.0119 43.5667V40.0956L3.95789 45.8293C3.2038 46.6834 1.98442 46.6834 1.23835 45.8293H1.23033ZM47.4384 45.8293L42.3844 40.1047V43.5576C42.3844 44.7661 41.526 45.7384 40.4591 45.7384C39.3921 45.7384 38.5337 44.7661 38.5337 43.5576V34.8344C38.5337 33.6259 39.3921 32.6536 40.4591 32.6536H48.1604C49.2274 32.6536 50.0858 33.6259 50.0858 34.8344C50.0858 36.0429 49.2274 37.0152 48.1604 37.0152H45.104L50.158 42.7398C50.9121 43.5939 50.9121 44.9751 50.158 45.8202C49.4039 46.6652 48.1845 46.6743 47.4384 45.8202V45.8293Z" fill=''/>
</g>
<defs>
<clipPath id="clip0_5_98">
<rect width="51.3423" height="46.5238" fill='' transform="translate(0.0269928 0.668457)"/>
</clipPath>
</defs>
</svg>
