<svg width="49" height="45" viewBox="0 0 49 45" fill="none" xmlns="http://www.w3.org/2000/svg">
<g clip-path="url(#clip0_5_96)">
<path d="M2.54331 3.18433C3.87868 3.18433 4.95754 4.40115 4.95754 5.9073V27.6911H21.8571V14.0762C21.8571 12.5701 22.936 11.3532 24.2713 11.3532H41.1709C45.1694 11.3532 48.4136 15.0122 48.4136 19.5221V38.5829C48.4136 40.0891 47.3347 41.3059 45.9993 41.3059C44.664 41.3059 43.5851 40.0891 43.5851 38.5829V35.86H26.6855H24.2713H4.95754V38.5829C4.95754 40.0891 3.87868 41.3059 2.54331 41.3059C1.20795 41.3059 0.129089 40.0891 0.129089 38.5829V5.9073C0.129089 4.40115 1.20795 3.18433 2.54331 3.18433ZM13.4073 11.3532C15.008 11.3532 16.5432 12.0704 17.6751 13.3471C18.807 14.6237 19.4429 16.3552 19.4429 18.1607C19.4429 19.9661 18.807 21.6976 17.6751 22.9742C16.5432 24.2509 15.008 24.9681 13.4073 24.9681C11.8066 24.9681 10.2714 24.2509 9.13953 22.9742C8.00765 21.6976 7.37176 19.9661 7.37176 18.1607C7.37176 16.3552 8.00765 14.6237 9.13953 13.3471C10.2714 12.0704 11.8066 11.3532 13.4073 11.3532Z" fill=""/>
</g>
<defs>
<clipPath id="clip0_5_96">
<rect width="48.2845" height="43.5675" fill="" transform="translate(0.129089 0.461426)"/>
</clipPath>
</defs>
</svg>
