<svg width="47" height="41" viewBox="0 0 47 41" fill="none" xmlns="http://www.w3.org/2000/svg">
<g clip-path="url(#clip0_5_89)">
<path d="M23.5003 6.40625C18.1802 6.40625 13.8066 8.77656 10.4529 11.8275C7.31145 14.6943 5.14097 18.0977 4.03124 20.5C5.14097 22.9023 7.31145 26.3057 10.4448 29.1725C13.8066 32.2234 18.1802 34.5938 23.5003 34.5938C28.8205 34.5938 33.1941 32.2234 36.5477 29.1725C39.6892 26.3057 41.8597 22.9023 42.9694 20.5C41.8597 18.0977 39.6892 14.6943 36.5559 11.8275C33.1941 8.77656 28.8205 6.40625 23.5003 6.40625ZM7.78471 9.0168C11.6279 5.50937 16.9073 2.5625 23.5003 2.5625C30.0934 2.5625 35.3727 5.50937 39.216 9.0168C43.0347 12.5002 45.5887 16.6562 46.8045 19.515C47.0738 20.1477 47.0738 20.8523 46.8045 21.485C45.5887 24.3437 43.0347 28.5078 39.216 31.9832C35.3727 35.4906 30.0934 38.4375 23.5003 38.4375C16.9073 38.4375 11.6279 35.4906 7.78471 31.9832C3.96597 28.5078 1.41197 24.3437 0.204333 21.485C-0.0649373 20.8523 -0.0649373 20.1477 0.204333 19.515C1.41197 16.6562 3.96597 12.4922 7.78471 9.0168ZM23.5003 26.9062C27.1069 26.9062 30.0281 24.0395 30.0281 20.5C30.0281 16.9605 27.1069 14.0938 23.5003 14.0938C23.4432 14.0938 23.3943 14.0938 23.3371 14.0938C23.4432 14.5021 23.5003 14.9346 23.5003 15.375C23.5003 18.2018 21.1585 20.5 18.2781 20.5C17.8293 20.5 17.3887 20.4439 16.9726 20.3398C16.9726 20.3959 16.9726 20.4439 16.9726 20.5C16.9726 24.0395 19.8937 26.9062 23.5003 26.9062ZM23.5003 10.25C26.2704 10.25 28.927 11.3299 30.8857 13.2522C32.8444 15.1744 33.9448 17.7815 33.9448 20.5C33.9448 23.2185 32.8444 25.8256 30.8857 27.7478C28.927 29.6701 26.2704 30.75 23.5003 30.75C20.7303 30.75 18.0737 29.6701 16.115 27.7478C14.1563 25.8256 13.0559 23.2185 13.0559 20.5C13.0559 17.7815 14.1563 15.1744 16.115 13.2522C18.0737 11.3299 20.7303 10.25 23.5003 10.25Z" fill=""/>
</g>
<defs>
<clipPath id="clip0_5_89">
<rect width="47" height="41" fill=""/>
</clipPath>
</defs>
</svg>
