<svg width="18" height="22" viewBox="0 0 18 22" fill="none" xmlns="http://www.w3.org/2000/svg">
<path d="M10.4766 0.5C4.6875 0.5 0 5.20156 0 11C0 16.7984 4.6875 21.5 10.4766 21.5C13.3172 21.5 15.8906 20.3656 17.7797 18.5281C18.0141 18.2984 18.075 17.9422 17.925 17.6516C17.775 17.3609 17.4516 17.1969 17.1281 17.2531C16.6687 17.3328 16.2 17.375 15.7172 17.375C11.175 17.375 7.49062 13.6812 7.49062 9.125C7.49062 6.04062 9.17813 3.35469 11.6766 1.93906C11.9625 1.775 12.1078 1.44688 12.0375 1.12813C11.9672 0.809375 11.6953 0.570313 11.3672 0.542188C11.0719 0.51875 10.7766 0.504687 10.4766 0.504687V0.5Z" fill=""/>
</svg>
