<svg width="24" height="24" viewBox="0 0 24 24" fill="none" xmlns="http://www.w3.org/2000/svg">
<g clip-path="url(#clip0_14_10)">
<path d="M16.9453 0.0563376C17.1797 0.154775 17.3485 0.365713 17.3953 0.61415L18.3282 5.67196L23.386 6.60009C23.6344 6.64696 23.8453 6.81571 23.9438 7.05009C24.0422 7.28446 24.0141 7.55165 23.8688 7.76259L20.9485 12.0001L23.8688 16.2329C24.0141 16.4438 24.0422 16.711 23.9438 16.9454C23.8453 17.1798 23.6344 17.3485 23.386 17.3954L18.3282 18.3282L17.3953 23.386C17.3485 23.6345 17.1797 23.8454 16.9453 23.9438C16.711 24.0423 16.4438 24.0142 16.2328 23.8688L12 20.9485L7.76721 23.8688C7.55628 24.0142 7.28909 24.0423 7.05471 23.9438C6.82034 23.8454 6.65159 23.6345 6.60471 23.386L5.6719 18.3282L0.614089 17.3954C0.365652 17.3485 0.154714 17.1798 0.0562765 16.9454C-0.042161 16.711 -0.014036 16.4438 0.131277 16.2329L3.05159 12.0001L0.131277 7.76727C-0.014036 7.55634 -0.042161 7.28915 0.0562765 7.05477C0.154714 6.8204 0.365652 6.65165 0.614089 6.60477L5.6719 5.67196L6.60471 0.61415C6.65159 0.365713 6.82034 0.154775 7.05471 0.0563376C7.28909 -0.0420999 7.55628 -0.0139749 7.76721 0.131338L12 3.05165L16.2328 0.131338C16.4438 -0.0139749 16.711 -0.0420999 16.9453 0.0563376ZM7.50003 12.0001C7.50003 10.8066 7.97413 9.66202 8.81805 8.81811C9.66196 7.97419 10.8066 7.50009 12 7.50009C13.1935 7.50009 14.3381 7.97419 15.182 8.81811C16.0259 9.66202 16.5 10.8066 16.5 12.0001C16.5 13.1936 16.0259 14.3382 15.182 15.1821C14.3381 16.026 13.1935 16.5001 12 16.5001C10.8066 16.5001 9.66196 16.026 8.81805 15.1821C7.97413 14.3382 7.50003 13.1936 7.50003 12.0001ZM18 12.0001C18 10.4088 17.3679 8.88266 16.2427 7.75745C15.1174 6.63223 13.5913 6.00009 12 6.00009C10.4087 6.00009 8.8826 6.63223 7.75739 7.75745C6.63217 8.88266 6.00003 10.4088 6.00003 12.0001C6.00003 13.5914 6.63217 15.1175 7.75739 16.2427C8.8826 17.3679 10.4087 18.0001 12 18.0001C13.5913 18.0001 15.1174 17.3679 16.2427 16.2427C17.3679 15.1175 18 13.5914 18 12.0001Z" fill=""/>
</g>
<defs>
<clipPath id="clip0_14_10">
<rect width="24" height="24" fill="white"/>
</clipPath>
</defs>
</svg>
